<svg width="100" height="100" viewBox="0 0 100 100" fill="none" xmlns="http://www.w3.org/2000/svg">
<rect width="100" height="100" fill="black"/>
<path d="M35.12 24.9607H86.88V29.8407H35.12V24.9607ZM39.76 46.5607H81.6V51.2007H39.76V46.5607ZM36.24 57.5207H85.12V62.4807H36.24V57.5207ZM57.2 8.7207H63.04V70.9607H57.2V8.7207ZM40.88 14.4807H80.8V40.6407H40.32V35.7607H74.96V19.2807H40.88V14.4807ZM13.28 13.1207H30.64V18.5607H13.28V13.1207ZM28.48 13.1207H29.28L30.24 12.8807L34.32 14.0807C33.1467 16.9074 31.7333 20.0807 30.08 23.6007C28.4267 27.1207 26.72 30.694 24.96 34.3207C23.2 37.894 21.4933 41.2807 19.84 44.4807L14.32 42.9607C15.6 40.5607 16.9067 38.054 18.24 35.4407C19.5733 32.774 20.88 30.1074 22.16 27.4407C23.44 24.774 24.6133 22.2674 25.68 19.9207C26.8 17.574 27.7333 15.574 28.48 13.9207V13.1207ZM20.64 35.9207H33.68V41.3607H19.84L20.64 35.9207ZM31.28 35.9207H32.48L33.52 35.8407L37.04 36.6407C35.8667 48.3207 33.5733 57.8407 30.16 65.2007C26.7467 72.5074 22.4267 78.054 17.2 81.8407C16.9333 81.414 16.5067 80.934 15.92 80.4007C15.3867 79.8674 14.8267 79.334 14.24 78.8007C13.7067 78.3207 13.2 77.9474 12.72 77.6807C17.84 74.2674 21.9467 69.254 25.04 62.6407C28.1867 55.974 30.2667 47.494 31.28 37.2007V35.9207ZM20.88 47.7607C22.48 53.254 24.5867 57.734 27.2 61.2007C29.8667 64.614 32.96 67.2274 36.48 69.0407C40.0533 70.854 44 72.1074 48.32 72.8007C52.6933 73.494 57.4133 73.8407 62.48 73.8407C63.1733 73.8407 64.32 73.8407 65.92 73.8407C67.52 73.8407 69.36 73.8407 71.44 73.8407C73.52 73.8407 75.6267 73.8407 77.76 73.8407C79.8933 73.7874 81.8133 73.7607 83.52 73.7607C85.2267 73.7074 86.5067 73.6807 87.36 73.6807C87.04 74.1074 86.72 74.6674 86.4 75.3607C86.08 76.1074 85.7867 76.8274 85.52 77.5207C85.2533 78.2674 85.0667 78.934 84.96 79.5207H62.4C56.5867 79.5207 51.2533 79.1207 46.4 78.3207C41.6 77.5207 37.28 76.054 33.44 73.9207C29.6 71.7874 26.2133 68.774 23.28 64.8807C20.4 60.934 18 55.814 16.08 49.5207L20.88 47.7607Z" fill="white"/>
<path d="M10 87.2807H90V91.2807H10V87.2807Z" fill="white"/>
</svg>
