<svg width="378" height="192" viewBox="0 0 378 192" fill="none" xmlns="http://www.w3.org/2000/svg">
<path d="M370.261 36.015L342.323 62.0396L358.46 96.6178L325.056 78.1242L297.143 104.126L337.4 40.0499L370.261 36.015Z" fill="#4285F4"/>
<path d="M330.154 35.9672L297.124 104.121L304.411 66.6968L271.007 48.2041L308.918 43.5492L316.212 6.09403L330.154 35.9672Z" fill="#FF3636"/>
<path d="M58.5 80.4215V70.8015H72.8V135.411C72.8 144.598 69.94 152.095 64.22 157.901C58.5867 163.795 50.7 166.741 40.56 166.741C31.2867 166.741 24.0067 164.358 18.72 159.591C13.52 154.825 10.4867 149.365 9.62 143.211H25.09C26.9967 150.058 32.24 153.481 40.82 153.481C46.02 153.481 50.05 152.008 52.91 149.061C55.8567 146.201 57.33 142.345 57.33 137.491V126.961C52.8233 133.895 45.7167 137.361 36.01 137.361C26.65 137.361 19.11 134.111 13.39 127.611C7.75667 121.025 4.94 112.921 4.94 103.301C4.94 93.6815 7.75667 85.6215 13.39 79.1215C19.11 72.5348 26.65 69.2415 36.01 69.2415C46.3233 69.2415 53.82 72.9681 58.5 80.4215ZM57.98 103.301C57.98 97.3215 56.2467 92.4248 52.78 88.6115C49.3133 84.7981 44.7633 82.8915 39.13 82.8915C33.5833 82.8915 29.0767 84.7981 25.61 88.6115C22.1433 92.4248 20.41 97.3215 20.41 103.301C20.41 109.195 22.1433 114.091 25.61 117.991C29.0767 121.805 33.5833 123.711 39.13 123.711C44.7633 123.711 49.3133 121.805 52.78 117.991C56.2467 114.091 57.98 109.195 57.98 103.301ZM153.131 109.021H101.781C102.388 114.395 104.338 118.685 107.631 121.891C110.924 125.011 115.258 126.571 120.631 126.571C124.184 126.571 127.391 125.705 130.251 123.971C133.111 122.238 135.148 119.898 136.361 116.951H151.961C149.881 123.798 145.981 129.345 140.261 133.591C134.628 137.751 127.954 139.831 120.241 139.831C110.188 139.831 102.041 136.495 95.8009 129.821C89.6475 123.148 86.5709 114.698 86.5709 104.471C86.5709 94.5048 89.6909 86.1415 95.9309 79.3815C102.171 72.6215 110.231 69.2415 120.111 69.2415C129.991 69.2415 137.964 72.5781 144.031 79.2515C150.184 85.8381 153.261 94.1581 153.261 104.211L153.131 109.021ZM120.111 81.8515C115.258 81.8515 111.228 83.2815 108.021 86.1415C104.814 89.0015 102.821 92.8148 102.041 97.5815H137.921C137.228 92.8148 135.321 89.0015 132.201 86.1415C129.081 83.2815 125.051 81.8515 120.111 81.8515ZM182.887 138.271H167.417V40.7715H182.887V138.271ZM217.037 129.431V165.311H201.567V70.8015H215.867V80.4215C220.634 72.9681 228.217 69.2415 238.617 69.2415C248.324 69.2415 255.95 72.6215 261.497 79.3815C267.13 86.1415 269.947 94.5481 269.947 104.601C269.947 114.655 267.13 123.061 261.497 129.821C255.95 136.495 248.324 139.831 238.617 139.831C228.737 139.831 221.544 136.365 217.037 129.431ZM216.517 104.601C216.517 110.841 218.207 115.998 221.587 120.071C225.054 124.145 229.69 126.181 235.497 126.181C241.217 126.181 245.81 124.145 249.277 120.071C252.744 115.911 254.477 110.755 254.477 104.601C254.477 98.2748 252.744 93.0315 249.277 88.8715C245.81 84.7115 241.217 82.6315 235.497 82.6315C229.69 82.6315 225.054 84.7115 221.587 88.8715C218.207 92.9448 216.517 98.1882 216.517 104.601Z" fill="black"/>
</svg>
